IKResults
version=1
nRows=6
nColumns=67
inDegrees=yes

Units are S.I. units (second, meters, Newtons, ...)
Angles are in degrees.

endheader
time	pelvis_tilt	pelvis_list	pelvis_rotation	pelvis_tx	pelvis_ty	pelvis_tz	hip_flexion_r	hip_adduction_r	hip_rotation_r	knee_angle_r	knee_rot_r	knee_adduc_r	ankle_angle_r	ankle_rot_r	ankle_add_r	subtalar_angle_r	mtp_angle_r	mtp_rot_r	mtp_add_r	hip_flexion_l	hip_adduction_l	hip_rotation_l	knee_angle_l	knee_rot_l	knee_adduc_l	ankle_angle_l	ankle_rot_l	ankle_add_l	subtalar_angle_l	mtp_angle_l	mtp_rot_l	mtp_add_l	lumbar_extension	lumbar_bending	lumbar_rotation	neck_flexion	neck_lateral_bending	neck_rotation	arm_flex_r	arm_add_r	arm_rot_r	elbow_flex_r	elbow_rot_r	elbow_add_r	pro_sup_r	wrist_flex_r	wrist_adduc_r	wrist_rot_r	wrist_dev_r	hand_finger_flex_r	hand_finger_adduc_r	hand_finger_rot_r	arm_flex_l	arm_add_l	arm_rot_l	elbow_flex_l	elbow_rot_l	elbow_add_l	pro_sup_l	wrist_flex_l	wrist_adduc_l	wrist_rot_l	wrist_dev_l	hand_finger_flex_l	hand_finger_adduc_l	hand_finger_rot_l
      0.00000000	     -0.51220188	     -7.65490993	      1.91176203	     -3.03806739	      0.62808630	      0.70658345	     14.95681971	      1.97587831	    -12.90059732	    -42.90299237	     -5.00000000	     -4.81805560	     24.72020872	     -5.00000000	     -2.01558550	    -20.04982867	      0.38018557	     -2.00000000	      0.65945986	     36.11520290	    -15.98448158	      3.53432392	    -41.25184843	      5.00000000	      0.60483351	     22.68620969	     -0.06327287	      5.00000000	    -11.28512198	      4.95130362	     -0.83580265	     -1.99999828	    -12.56721274	      3.86907088	     17.80407352	      0.00000000	      0.00000000	      0.00000000	      0.00000000	      0.00000000	      0.00000000	      0.00000000	      0.00000000	      0.00000000	     -0.00042092	      0.00000000	      0.00000000	      0.00000000	      0.00000000	      0.00000000	      0.00000000	      0.00000000	      0.00000000	      0.00000000	      0.00000000	      0.00000000	      0.00000000	      0.00000000	      0.00000000	      0.00000000	      0.00000000	      0.00000000	      0.00000000	      0.00000000	      0.00000000	      0.00000000
      0.00500000	     -1.20864333	     -7.46955231	      2.45359307	     -3.03407737	      0.62656991	      0.70377583	     15.32089710	      1.28280331	    -12.21398074	    -43.27426274	     -5.00000000	     -3.90952080	     26.29718256	     -5.00000000	     -1.88139936	    -21.25936084	     -0.03182248	     -2.00000000	      0.79131989	     36.64734320	    -14.94768231	      4.53820680	    -40.70714989	      5.00000000	      0.45635112	     20.91342895	      1.25871917	      5.00000000	    -12.52295324	      4.99027585	     -0.99433783	     -1.98055510	    -11.31131288	      3.89934657	     16.63358557	      0.00000000	      0.00000000	      0.00000000	      0.00000000	      0.00000000	      0.00000000	      0.00000000	      0.00000000	      0.00000000	     -0.00042092	      0.00000000	      0.00000000	      0.00000000	      0.00000000	      0.00000000	      0.00000000	      0.00000000	      0.00000000	      0.00000000	      0.00000000	      0.00000000	      0.00000000	      0.00000000	      0.00000000	      0.00000000	      0.00000000	      0.00000000	      0.00000000	      0.00000000	      0.00000000	      0.00000000
      0.01000000	     -1.28855905	     -7.58624915	      2.30146659	     -3.03061858	      0.62568128	      0.70213791	     15.18409841	      1.29813922	    -12.18087685	    -43.44975646	     -5.00000000	     -4.05667839	     26.24085162	     -5.00000000	     -1.82490290	    -21.26514481	     -0.08747588	     -2.00000000	      0.79046444	     36.42497253	    -14.84694671	      4.75552251	    -40.29169949	      5.00000000	      0.42888492	     20.80112486	      1.10957266	      5.00000000	    -12.47548293	      5.01825546	     -1.03821290	     -1.98282807	    -10.97650812	      4.02339166	     16.71071853	      0.00000000	      0.00000000	      0.00000000	      0.00000000	      0.00000000	      0.00000000	      0.00000000	      0.00000000	      0.00000000	     -0.00042092	      0.00000000	      0.00000000	      0.00000000	      0.00000000	      0.00000000	      0.00000000	      0.00000000	      0.00000000	      0.00000000	      0.00000000	      0.00000000	      0.00000000	      0.00000000	      0.00000000	      0.00000000	      0.00000000	      0.00000000	      0.00000000	      0.00000000	      0.00000000	      0.00000000
      0.01500000	     -1.38278911	     -7.59184106	      2.20614978	     -3.02660669	      0.62495181	      0.70081482	     14.92844514	      1.26245885	    -12.17816592	    -43.47257578	     -5.00000000	     -4.23757254	     26.08038401	     -5.00000000	     -1.68065681	    -21.30321559	     -0.23460192	     -2.00000000	      0.78941466	     36.18114952	    -14.72641037	      5.07340125	    -40.07594525	      5.00000000	      0.18233891	     20.45139172	      0.65763453	      5.00000000	    -12.31748639	      5.09759565	     -1.16478269	     -1.98877427	    -10.46927929	      3.92786240	     16.92370500	      0.00000000	      0.00000000	      0.00000000	      0.00000000	      0.00000000	      0.00000000	      0.00000000	      0.00000000	      0.00000000	     -0.00042092	      0.00000000	      0.00000000	      0.00000000	      0.00000000	      0.00000000	      0.00000000	      0.00000000	      0.00000000	      0.00000000	      0.00000000	      0.00000000	      0.00000000	      0.00000000	      0.00000000	      0.00000000	      0.00000000	      0.00000000	      0.00000000	      0.00000000	      0.00000000	      0.00000000
      0.02000000	     -1.37352869	     -7.67896574	      2.10640572	     -3.02329266	      0.62404091	      0.69950399	     14.74582252	      1.28112907	    -12.13351573	    -43.74346336	     -5.00000000	     -4.37721731	     26.07144144	     -5.00000000	     -1.67064063	    -21.31746384	     -0.24777832	     -2.00000000	      0.79019767	     36.03411998	    -14.62158898	      5.17498900	    -40.19117856	      5.00000000	      0.26191810	     20.40948068	      0.60682029	      5.00000000	    -12.29694042	      5.10529501	     -1.17872254	     -1.98896556	    -10.22961730	      3.95098767	     16.92199899	      0.00000000	      0.00000000	      0.00000000	      0.00000000	      0.00000000	      0.00000000	      0.00000000	      0.00000000	      0.00000000	     -0.00042092	      0.00000000	      0.00000000	      0.00000000	      0.00000000	      0.00000000	      0.00000000	      0.00000000	      0.00000000	      0.00000000	      0.00000000	      0.00000000	      0.00000000	      0.00000000	      0.00000000	      0.00000000	      0.00000000	      0.00000000	      0.00000000	      0.00000000	      0.00000000	      0.00000000
      0.02500000	     -1.36822498	     -7.54824637	      2.04230118	     -3.02002142	      0.62326969	      0.69776624	     14.54665464	      1.01902254	    -12.17997333	    -43.95213327	     -5.00000000	     -4.59810038	     25.91038775	     -5.00000000	     -1.53985288	    -21.43710503	     -0.39995303	     -2.00000000	      0.79436927	     35.86624948	    -14.16005134	      5.60834335	    -40.51755036	      5.00000000	      0.23609558	     19.98028299	     -0.00299862	      5.00000000	    -12.07801697	      5.19786872	     -1.35094279	     -1.99019511	     -9.98861306	      3.77562294	     17.21272328	      0.00000000	      0.00000000	      0.00000000	      0.00000000	      0.00000000	      0.00000000	      0.00000000	      0.00000000	      0.00000000	     -0.00042092	      0.00000000	      0.00000000	      0.00000000	      0.00000000	      0.00000000	      0.00000000	      0.00000000	      0.00000000	      0.00000000	      0.00000000	      0.00000000	      0.00000000	      0.00000000	      0.00000000	      0.00000000	      0.00000000	      0.00000000	      0.00000000	      0.00000000	      0.00000000	      0.00000000
